<svg style="height: 512px; width: 512px;" xmlns="http://www.w3.org/2000/svg" viewBox="0 0 512 512"><defs><filter id="shadow-2" height="300%" width="300%" x="-100%" y="-100%"><feFlood flood-color="rgba(245, 166, 35, 1)" result="flood"></feFlood><feComposite in="flood" in2="SourceGraphic" operator="atop" result="composite"></feComposite><feGaussianBlur in="composite" stdDeviation="15" result="blur"></feGaussianBlur><feOffset dx="0" dy="0" result="offset"></feOffset><feComposite in="SourceGraphic" in2="offset" operator="over"></feComposite></filter><filter id="shadow-4" height="300%" width="300%" x="-100%" y="-100%"><feFlood flood-color="rgba(245, 166, 35, 1)" result="flood"></feFlood><feComposite in="flood" in2="SourceGraphic" operator="atop" result="composite"></feComposite><feGaussianBlur in="composite" stdDeviation="15" result="blur"></feGaussianBlur><feOffset dx="0" dy="0" result="offset"></feOffset><feComposite in="SourceGraphic" in2="offset" operator="over"></feComposite></filter></defs><g class="" style="" transform="translate(0,0)"><g transform="translate(51.2, 51.2) scale(0.8, 0.8) rotate(0, 256, 256) skewX(0) skewY(0)"><path d="M241 30.32C236.3 30.32 231.7 31.02 227.2 32.54C213.7 37.19 200.7 49.47 191.7 74.66C182 101.4 178.8 125 164.3 144.7C149.7 164.4 124.4 177 76.07 182.2C55.54 184.5 42.15 193.3 33.57 205.5C24.98 217.7 21.39 233.6 22.83 249.9C25.72 282.3 47.88 314.1 86.32 317.8C137 322.7 175.4 319 205 308.9C204.6 302.5 204.3 296.1 204.2 289.6C203.2 239 237.4 199.1 275.4 185.3C284.9 181.8 294.7 180 304.4 180.1C305.2 180.1 305.9 180.2 306.7 180.2C309.5 169.8 312 158.8 314.3 147.5C323.9 100.7 300 57.79 270.7 39.69C261.6 34.03 252.2 30.83 243.1 30.36C242.4 30.36 241.7 30.26 241 30.26Z" class="selected" fill="#f8e71c" fill-opacity="1" stroke="#000000" stroke-opacity="1" stroke-width="8" filter="url(#shadow-2)"></path><path d="M208.6 71.94L226.2 75.26C215.9 130.4 199.7 165.4 172.8 187.5C154.1 202.9 131 211.6 102.8 217.4L98.34 199.9C125.2 194.4 145.7 186.5 161.4 173.6C183.9 155.1 198.6 125.1 208.6 71.94Z" class="" fill="#f5a623" fill-opacity="1" stroke="#000000" stroke-opacity="1" stroke-width="8"></path><path d="M304 198.1C296.8 198 289.2 199.4 281.5 202.2C250.9 213.4 221.3 247.1 222.2 289.2C223.2 339.9 232.8 384.5 261.1 417.9C289.3 451.3 337.1 474.8 418.3 481.4C455.6 484.5 480.4 462.5 487.5 438.2C491 426 490 413.4 483.9 402.6C477.9 391.8 466.5 382.3 447.4 376.9C402.4 364.2 378.9 344.2 366.9 320.3C354.9 296.5 354 270.5 349.5 245.3L349.5 245.2C345.5 221.8 335.6 209.2 323.8 202.9C317.8 199.8 311.1 198.2 304 198.1Z" class="" fill="#f5a623" fill-opacity="1" stroke="#000000" stroke-opacity="1" stroke-width="8" filter="url(#shadow-4)"></path><path d="M80.58 203.1L84.98 220.7C77.76 221.8 70.28 222.8 62.44 223.8L60.24 206C67.36 205.1 74.11 204.2 80.58 203.1Z" class="" fill="#f5a623" fill-opacity="1" stroke="#000000" stroke-opacity="1" stroke-width="8"></path><path d="M303.9 217.4L305.3 235.4C299.6 235.9 294.6 236.9 290.2 238.3L282.3 222.1C288.8 219.7 296 218.1 303.9 217.4Z" class="" fill="#f8e71c" fill-opacity="1" stroke="#000000" stroke-opacity="1" stroke-width="8"></path><path d="M266.4 230.6L274.5 247.2C273.1 248.4 271.9 249.7 270.7 251.1C263.6 259.6 259.7 271.4 258.5 285C256 312.3 264.7 346.1 273.2 367.2L256.6 374C247.2 350.8 237.7 315.6 240.5 283.4C242 267.4 246.6 251.8 256.9 239.6C259.6 236.3 262.8 233.3 266.4 230.6Z" class="" fill="#f8e71c" fill-opacity="1" stroke="#000000" stroke-opacity="1" stroke-width="8"></path></g></g></svg>