<svg style="height: 512px; width: 512px;" xmlns="http://www.w3.org/2000/svg" viewBox="0 0 512 512"><g class="" style="" transform="translate(0,0)"><g transform="translate(0, 0) scale(1, 1) rotate(-15, 256, 256) skewX(0) skewY(0)"><path d="M256 16C248.5 83.5 218.5 166 218.5 196C218.5 211 233.5 226 256 226C278.5 226 293.5 211 293.5 196C293.5 166 263.5 83.5 256 16Z" class="" fill="#569b07" fill-opacity="1" stroke="#000000" stroke-opacity="1" stroke-width="8"></path><path d="M96.906 96.906C160.546 181.759 160.55 181.768 171.156 192.376C181.763 202.982 192.362 213.576 202.969 202.969C213.574 192.361 202.979 181.762 192.374 171.155C181.767 160.549 181.758 160.545 96.904 96.905Z" class="" fill="#62c799" fill-opacity="1" stroke="#000000" stroke-opacity="1" stroke-width="8"></path><path d="M415.094 96.906C330.241 160.546 330.231 160.55 319.624 171.156C309.018 181.763 298.424 192.362 309.031 202.969C319.639 213.574 330.238 202.981 340.845 192.374C351.451 181.768 351.455 181.758 415.095 96.904Z" class="" fill="#62c799" fill-opacity="1" stroke="#000000" stroke-opacity="1" stroke-width="8"></path><path d="M196 218.5C166 218.5 83.5 248.5 16 256C83.5 263.5 166 293.5 196 293.5C211 293.5 226 278.5 226 256C226 233.5 211 218.5 196 218.5Z" class="" fill="#569b07" fill-opacity="1" stroke="#000000" stroke-opacity="1" stroke-width="8"></path><path d="M316 218.5C301 218.5 286 233.5 286 256C286 278.5 301 293.5 316 293.5C346 293.5 428.5 263.5 496 256C428.5 248.5 346 218.5 316 218.5Z" class="" fill="#569b07" fill-opacity="1" stroke="#000000" stroke-opacity="1" stroke-width="8"></path><path d="M256 286C233.5 286 218.5 301 218.5 316C218.5 346 248.5 428.5 256 496C263.5 428.5 293.5 346 293.5 316C293.5 301 278.5 286 256 286Z" class="" fill="#569b07" fill-opacity="1" stroke="#000000" stroke-opacity="1" stroke-width="8"></path><path d="M193.03 304.656C185.74 305.056 178.448 312.333 171.156 319.626C160.55 330.232 160.546 330.241 96.906 415.094C181.759 351.454 181.768 351.45 192.376 340.844C202.982 330.237 213.576 319.638 202.969 309.031C199.653 305.718 196.345 304.476 193.029 304.657Z" class="" fill="#62c799" fill-opacity="1" stroke="#000000" stroke-opacity="1" stroke-width="8"></path><path d="M317.97 304.656C314.986 304.756 312.014 306.048 309.03 309.031C298.425 319.639 309.02 330.238 319.625 340.845C330.231 351.451 330.241 351.455 415.095 415.095C351.455 330.242 351.45 330.233 340.845 319.625C333.22 312.003 325.592 304.405 317.969 304.657Z" class="selected" fill="#62c799" fill-opacity="1" stroke="#000000" stroke-opacity="1" stroke-width="8"></path></g></g></svg>