<svg xmlns="http://www.w3.org/2000/svg" style="height: 512px; width: 512px;" viewBox="0 0 512 512">
  <g class="" style="" transform="translate(0,0)">
    <g>
      <path d="M256 16C248.5 83.5 218.5 166 218.5 196C218.5 211 233.5 226 256 226C278.5 226 293.5 211 293.5 196C293.5 166 263.5 83.5 256 16Z" class="" fill="#4a90e2" fill-opacity="1" stroke="#000000" stroke-opacity="1" stroke-width="8"/>
      <path d="M196 218.5C166 218.5 83.5 248.5 16 256C83.5 263.5 166 293.5 196 293.5C211 293.5 226 278.5 226 256C226 233.5 211 218.5 196 218.5Z" class="" fill="#7ed321" fill-opacity="1" stroke="#000000" stroke-opacity="1" stroke-width="8"/>
      <path d="M316 218.5C301 218.5 286 233.5 286 256C286 278.5 301 293.5 316 293.5C346 293.5 428.5 263.5 496 256C428.5 248.5 346 218.5 316 218.5Z" class="selected" fill="#f5a623" fill-opacity="1" stroke="#000000" stroke-opacity="1" stroke-width="8"/>
    </g>
  </g>
</svg>
