<svg style="height: 512px; width: 512px;" xmlns="http://www.w3.org/2000/svg" viewBox="0 0 512 512"><defs><filter id="shadow-2" height="300%" width="300%" x="-100%" y="-100%"><feFlood flood-color="rgba(245, 166, 35, 1)" result="flood"></feFlood><feComposite in="flood" in2="SourceGraphic" operator="atop" result="composite"></feComposite><feGaussianBlur in="composite" stdDeviation="15" result="blur"></feGaussianBlur><feOffset dx="0" dy="0" result="offset"></feOffset><feComposite in="SourceGraphic" in2="offset" operator="over"></feComposite></filter><filter id="shadow-3" height="300%" width="300%" x="-100%" y="-100%"><feFlood flood-color="rgba(74, 144, 226, 1)" result="flood"></feFlood><feComposite in="flood" in2="SourceGraphic" operator="atop" result="composite"></feComposite><feGaussianBlur in="composite" stdDeviation="15" result="blur"></feGaussianBlur><feOffset dx="0" dy="0" result="offset"></feOffset><feComposite in="SourceGraphic" in2="offset" operator="over"></feComposite></filter><filter id="shadow-4" height="300%" width="300%" x="-100%" y="-100%"><feFlood flood-color="rgba(65, 117, 5, 1)" result="flood"></feFlood><feComposite in="flood" in2="SourceGraphic" operator="atop" result="composite"></feComposite><feGaussianBlur in="composite" stdDeviation="15" result="blur"></feGaussianBlur><feOffset dx="0" dy="0" result="offset"></feOffset><feComposite in="SourceGraphic" in2="offset" operator="over"></feComposite></filter></defs><g class="" style="" transform="translate(0,0)"><g><path d="M256 16C248.5 83.5 218.5 166 218.5 196C218.5 211 233.5 226 256 226C278.5 226 293.5 211 293.5 196C293.5 166 263.5 83.5 256 16Z" class="selected" fill="#f5a623" fill-opacity="1" stroke="#000000" stroke-opacity="1" stroke-width="8" filter="url(#shadow-2)"></path><path d="M196 218.5C166 218.5 83.5 248.5 16 256C83.5 263.5 166 293.5 196 293.5C211 293.5 226 278.5 226 256C226 233.5 211 218.5 196 218.5Z" class="" fill="#4a90e2" fill-opacity="1" stroke="#000000" stroke-opacity="1" stroke-width="8" filter="url(#shadow-3)"></path><path d="M316 218.5C301 218.5 286 233.5 286 256C286 278.5 301 293.5 316 293.5C346 293.5 428.5 263.5 496 256C428.5 248.5 346 218.5 316 218.5Z" class="" fill="#7ed321" fill-opacity="1" stroke="#000000" stroke-opacity="1" stroke-width="8" filter="url(#shadow-4)"></path><path d="M256 286C233.5 286 218.5 301 218.5 316C218.5 346 248.5 428.5 256 496C263.5 428.5 293.5 346 293.5 316C293.5 301 278.5 286 256 286Z" class="" fill="#ffffff" fill-opacity="0"></path></g></g></svg>