<svg style="height: 512px; width: 512px;" xmlns="http://www.w3.org/2000/svg" viewBox="0 0 512 512"><defs><filter id="shadow-6" height="300%" width="300%" x="-100%" y="-100%"><feFlood flood-color="rgba(252, 136, 252, 1)" result="flood"></feFlood><feComposite in="flood" in2="SourceGraphic" operator="atop" result="composite"></feComposite><feGaussianBlur in="composite" stdDeviation="15" result="blur"></feGaussianBlur><feOffset dx="0" dy="0" result="offset"></feOffset><feComposite in="SourceGraphic" in2="offset" operator="over"></feComposite></filter><filter id="shadow-7" height="300%" width="300%" x="-100%" y="-100%"><feFlood flood-color="rgba(252, 136, 252, 1)" result="flood"></feFlood><feComposite in="flood" in2="SourceGraphic" operator="atop" result="composite"></feComposite><feGaussianBlur in="composite" stdDeviation="15" result="blur"></feGaussianBlur><feOffset dx="0" dy="0" result="offset"></feOffset><feComposite in="SourceGraphic" in2="offset" operator="over"></feComposite></filter></defs><g class="" style="" transform="translate(0,0)"><g transform="translate(25.6, 25.6) scale(0.9, 0.9) rotate(0, 256, 256) skewX(0) skewY(0)"><path d="M256.97 41.688C240.893 41.688 226.073 50.148 214.75 65.031C203.427 79.917 196.094 101.083 196.094 124.657C196.094 148.232 203.426 169.397 214.75 184.282C226.074 199.168 240.893 207.658 256.97 207.658C273.044 207.658 287.895 199.168 299.22 184.283C310.542 169.399 317.875 148.233 317.875 124.659C317.875 101.085 310.542 79.919 299.219 65.034C287.894 50.151 273.044 41.691 256.969 41.691Z" class="selected" fill="#000000" fill-opacity="1" stroke="#000000" stroke-opacity="1" stroke-width="8"></path><path d="M222.437 120.625L241.125 120.625L241.125 166L222.437 166L222.437 120.625Z" class="" fill="#ffffff" fill-opacity="1"></path><path d="M273.157 120.625L291.844 120.625L291.844 166L273.156 166L273.156 120.625Z" class="" fill="#ffffff" fill-opacity="1"></path><path d="M64.687 127.625L21.657 248.5C21.647 248.535 21.634 248.56 21.625 248.594C19.205 257.869 20.738 264.279 24 269.25C27.274 274.24 32.77 277.87 39.063 279.438C45.356 281.004 52.206 280.416 57.75 277.625C63.294 274.835 67.805 270.125 70.188 261.687L70.312 261.281L70.469 260.845L96.749 193.095L99.812 185.22L107.968 187.47L162.842 202.656L168.498 204.219L169.561 209.969L183.467 284.969C148.895 289.314 117.815 296.691 92.185 306.405C70.867 314.485 53.267 324.15 40.497 335.593C27.727 347.036 19.527 360.859 19.527 376.093C19.527 391.326 27.727 405.183 40.497 416.623C53.267 428.066 70.867 437.701 92.185 445.78C134.819 461.94 192.541 471.656 256.31 471.656C320.078 471.656 377.83 461.939 420.466 445.781C441.782 437.703 459.382 428.068 472.152 416.626C484.922 405.184 493.122 391.328 493.122 376.096C493.122 360.861 484.922 347.038 472.152 335.596C459.382 324.152 441.782 314.486 420.465 306.406C394.895 296.716 363.881 289.351 329.401 285.001L343.307 209.971L344.37 204.221L350.026 202.657L404.902 187.47L413.058 185.22L416.121 193.094L442.401 260.844L442.559 261.281L442.684 261.689C445.066 270.126 449.546 274.835 455.09 277.626C460.633 280.416 467.515 281.006 473.81 279.439C480.102 277.872 485.597 274.241 488.87 269.251C492.133 264.281 493.667 257.871 491.246 248.595L491.216 248.501L448.183 127.626L332.433 157.096C328.639 171.604 322.363 184.72 314.09 195.596C299.993 214.126 279.68 226.346 256.965 226.346C234.25 226.346 213.967 214.126 199.87 195.596C191.657 184.799 185.423 171.791 181.62 157.406L64.682 127.626Z" class="" fill="#000000" fill-opacity="1" stroke="#000000" stroke-opacity="1" stroke-width="8"></path><path d="M186.875 303.405L190.281 321.75C182.283 323.66 174.824 325.894 168.031 328.47C156.424 332.87 146.716 338.14 139.376 344.72C132.036 351.296 126.813 359.788 126.813 369.406C126.813 379.026 132.036 387.516 139.376 394.094C146.716 400.671 156.424 405.944 168.032 410.344C191.25 419.142 222.177 424.281 256.314 424.281C290.452 424.281 321.379 419.143 344.596 410.345C356.204 405.945 365.943 400.672 373.283 394.095C380.623 387.518 385.816 379.025 385.816 369.407C385.816 359.789 380.624 351.297 373.284 344.72C365.944 338.14 356.206 332.87 344.598 328.47C337.878 325.92 330.501 323.71 322.598 321.812L326 303.438C359.72 307.635 389.78 314.755 413.844 323.876C433.688 331.398 449.407 340.316 459.656 349.501C469.906 358.686 474.436 367.525 474.436 376.095C474.438 384.665 469.906 393.505 459.656 402.689C449.406 411.872 433.688 420.793 413.844 428.314C374.154 443.354 318.167 452.97 256.314 452.97C194.458 452.97 138.501 443.354 98.812 428.312C78.968 420.792 63.218 411.872 52.969 402.687C42.719 393.504 38.219 384.664 38.219 376.094C38.219 367.524 42.719 358.684 52.969 349.5C63.217 340.315 78.967 331.397 98.812 323.875C122.932 314.732 153.062 307.598 186.874 303.405Z" class="" fill="#9013fe" fill-opacity="1" stroke="#000000" stroke-opacity="1" stroke-width="8" filter="url(#shadow-6)"></path><path d="M193.719 340.188L195.969 352.406L195.969 364.186L196.279 364.188C196.182 364.601 196.124 365.018 196.124 365.438C196.124 375.198 223.099 383.094 256.374 383.094C289.649 383.094 316.624 375.197 316.624 365.438C316.624 365.016 316.534 364.602 316.436 364.188L316.749 364.188L316.749 353.25L319.155 340.25C326.018 341.926 332.348 343.84 337.968 345.97C348.102 349.81 355.958 354.337 360.778 358.656C365.598 362.976 367.123 366.451 367.123 369.406C367.123 372.362 365.599 375.869 360.779 380.186C355.959 384.506 348.103 389.034 337.969 392.876C317.697 400.556 288.535 405.594 256.311 405.594C224.088 405.594 194.926 400.557 174.655 392.874C164.52 389.034 156.663 384.506 151.843 380.187C147.023 375.869 145.499 372.362 145.499 369.407C145.499 366.451 147.023 362.975 151.843 358.657C156.663 354.337 164.52 349.81 174.655 345.969C180.343 343.812 186.758 341.876 193.718 340.186Z" class="" fill="#9013fe" fill-opacity="1" stroke="#000000" stroke-opacity="1" stroke-width="8" filter="url(#shadow-7)"></path></g></g></svg>