<svg style="height: 512px; width: 512px;" xmlns="http://www.w3.org/2000/svg" viewBox="0 0 512 512"><defs><filter id="shadow-1" height="300%" width="300%" x="-100%" y="-100%"><feFlood flood-color="rgba(144, 19, 254, 1)" result="flood"></feFlood><feComposite in="flood" in2="SourceGraphic" operator="atop" result="composite"></feComposite><feGaussianBlur in="composite" stdDeviation="15" result="blur"></feGaussianBlur><feOffset dx="0" dy="0" result="offset"></feOffset><feComposite in="SourceGraphic" in2="offset" operator="over"></feComposite></filter><filter id="shadow-2" height="300%" width="300%" x="-100%" y="-100%"><feFlood flood-color="rgba(144, 19, 254, 1)" result="flood"></feFlood><feComposite in="flood" in2="SourceGraphic" operator="atop" result="composite"></feComposite><feGaussianBlur in="composite" stdDeviation="15" result="blur"></feGaussianBlur><feOffset dx="0" dy="0" result="offset"></feOffset><feComposite in="SourceGraphic" in2="offset" operator="over"></feComposite></filter><radialGradient id="delapouite-hole-gradient-3"><stop offset="0%" stop-color="#000000" stop-opacity="1"></stop><stop offset="100%" stop-color="#9013fe" stop-opacity="1"></stop></radialGradient></defs><g class="" style="" transform="translate(0,0)"><g><path d="M256 151C193.1 151 136.1 161.8 94.06 179.8C73.03 188.9 55.68 199.7 43.2 212.3C30.71 225 23 239.9 23 256C23 272.1 30.71 287 43.2 299.7C55.68 312.3 73.03 323.1 94.06 332.2C136.1 350.2 193.1 361 256 361C318.9 361 375.9 350.2 417.9 332.2C439 323.1 456.3 312.3 468.8 299.7C481.3 287 489 272.1 489 256C489 239.9 481.3 225 468.8 212.3C456.3 199.7 439 188.9 417.9 179.8C375.9 161.8 318.9 151 256 151Z" class="" fill="#000000" fill-opacity="1" stroke="#000000" stroke-opacity="1" stroke-width="8" filter="url(#shadow-2)"></path><path d="M256 194C338.7 194 421.5 215.2 471 257.6C470.5 267.5 465.7 277.2 456 287C445.8 297.4 430.4 307.2 410.8 315.6C371.8 332.3 316.8 343 256 343C195.2 343 140.2 332.3 101.2 315.6C81.65 307.2 66.19 297.4 56.01 287C46.36 277.2 41.53 267.5 41.05 257.6C90.54 215.2 173.3 194 256 194Z" class="selected" fill="url(#delapouite-hole-gradient-3)" stroke="#000000" stroke-opacity="1" stroke-width="8"></path></g></g></svg>